<svg xmlns="http://www.w3.org/2000/svg" width="1024" height="1024" viewBox="0 0 1024 1024" role="img" aria-label="DeskBrief dark vector icon">
  <rect width="1024" height="1024" fill="#101315"/>
  <circle cx="512" cy="402" r="430" fill="#1d2327" opacity="0.48"/>
  <ellipse cx="512" cy="832" rx="238" ry="42" fill="#000000" opacity="0.30"/>

  <g id="screen-and-chart-layer">
    <path d="M442 724h140c6 58 18 86 43 90H399c25-4 37-32 43-90z" fill="#aeb5ba"/>
    <path d="M446 724h132c3 24 7 44 14 60H432c7-16 11-36 14-60z" fill="#e4e8eb" opacity="0.72"/>
    <rect x="365" y="812" width="294" height="34" rx="12" fill="#d9dde0"/>
    <rect x="374" y="818" width="276" height="12" rx="6" fill="#ffffff" opacity="0.56"/>

    <rect x="204" y="230" width="650" height="500" rx="66" fill="#cfd5d9"/>
    <rect x="216" y="242" width="626" height="476" rx="55" fill="#eef1f3" opacity="0.92"/>
    <rect x="230" y="256" width="598" height="448" rx="43" fill="#293139"/>
    <rect x="242" y="278" width="574" height="422" rx="34" fill="#11181d"/>
    <rect x="252" y="288" width="554" height="402" rx="27" fill="#172026"/>

    <g id="background-chart-bars">
      <line x1="268" y1="704" x2="790" y2="704" stroke="#d9dee3" stroke-opacity="0.34" stroke-width="4" stroke-linecap="round"/>
      <rect x="268" y="480" width="54" height="220" rx="14" fill="#2F7DD1"/>
      <rect x="274" y="486" width="16" height="207" rx="8" fill="#68b8ff" opacity="0.35"/>
      <rect x="362" y="420" width="54" height="280" rx="14" fill="#45A564"/>
      <rect x="368" y="426" width="16" height="267" rx="8" fill="#90e0a8" opacity="0.33"/>
      <rect x="455" y="524" width="54" height="176" rx="14" fill="#E1733B"/>
      <rect x="461" y="530" width="16" height="163" rx="8" fill="#ffbb75" opacity="0.34"/>
      <rect x="549" y="390" width="54" height="310" rx="14" fill="#D7B72D"/>
      <rect x="555" y="396" width="16" height="297" rx="8" fill="#fff184" opacity="0.36"/>
      <rect x="642" y="450" width="54" height="250" rx="14" fill="#4B8E3F"/>
      <rect x="648" y="456" width="16" height="237" rx="8" fill="#9ad36b" opacity="0.30"/>
      <rect x="736" y="510" width="54" height="190" rx="14" fill="#8E8E93"/>
      <rect x="742" y="516" width="16" height="177" rx="8" fill="#d0d2d6" opacity="0.28"/>
    </g>

    <rect x="242" y="278" width="574" height="422" rx="34" fill="none" stroke="#ffffff" stroke-opacity="0.50" stroke-width="4"/>
    <path d="M254 299c12-12 26-18 43-18h463c18 0 33 6 45 18" fill="none" stroke="#ffffff" stroke-opacity="0.38" stroke-width="5" stroke-linecap="round"/>
  </g>

  <g id="foreground-screenshot-layer">
    <rect x="174" y="310" width="290" height="210" rx="15" fill="#bfd4dc" opacity="0.46" stroke="#eefaff" stroke-width="3"/>
    <rect x="142" y="352" width="276" height="220" rx="18" fill="#aec9d1" opacity="0.50" stroke="#f0fbff" stroke-width="3"/>
    <rect x="96" y="398" width="300" height="244" rx="25" fill="#d7dde2" stroke="#ffffff" stroke-width="5"/>
    <rect x="108" y="410" width="276" height="220" rx="18" fill="#f8fafb" opacity="0.45"/>

    <rect x="140" y="448" width="210" height="156" rx="14" fill="#1b252c" stroke="#f4f7f9" stroke-opacity="0.34" stroke-width="2"/>
    <circle cx="170" cy="482" r="16" fill="#65d5cf"/>
    <path d="M140 592l58-62c15-16 32-16 48 0l60 64z" fill="#44565f"/>
    <path d="M208 604l86-92c16-17 35-17 51 1l34 38v53z" fill="#6d8992"/>

    <g fill="none" stroke="#2fb4b1" stroke-width="7" stroke-linecap="round" stroke-linejoin="round">
      <path d="M126 458v-24h24"/>
      <path d="M366 458v-24h-24"/>
      <path d="M126 582v24h24"/>
      <path d="M366 582v24h-24"/>
    </g>
    <path d="M111 416c22-10 240-11 266 0" fill="none" stroke="#ffffff" stroke-opacity="0.70" stroke-width="5" stroke-linecap="round"/>
  </g>
</svg>
